<svg width="96" height="96" xmlns="http://www.w3.org/2000/svg" xmlns:xlink="http://www.w3.org/1999/xlink" xml:space="preserve" overflow="hidden"><g transform="translate(-879 -251)"><path d="M890.938 331.122 917.255 342.022 917.255 255.1 890.938 266ZM892.938 267.339 915.255 258.094 915.255 339.032 892.938 329.786Z"/><path d="M934 292 936 292 936 267 921 267 921 269 934 269 934 292Z"/><path d="M934 327 921 327 921 329 936 329 936 304 934 304 934 327Z"/><path d="M947.707 282.293 946.293 283.707 959.569 296.983C959.573 296.987 959.573 296.993 959.569 296.997 959.567 296.999 959.565 297 959.562 297L926 297 926 299 959.562 299C959.568 299 959.572 299.005 959.572 299.01 959.572 299.013 959.571 299.015 959.569 299.017L946.293 312.293 947.707 313.707 963.414 298Z"/></g></svg>