<svg width="96" height="96" xmlns="http://www.w3.org/2000/svg" xmlns:xlink="http://www.w3.org/1999/xlink" xml:space="preserve" overflow="hidden"><g transform="translate(-1064 -275)"><path d="M1137 291.978 1127 291.978 1127 300.846 1112 286.6 1070.57 325.958 1077.06 332.446 1082 327.764 1082 359.976 1107 359.986 1107 334.994 1117 334.994 1117 359.994 1142 360 1142 327.722 1146.97 332.422 1153.43 325.959 1137 310.346ZM1129 293.978 1135 293.978 1135 308.446 1129 302.746ZM1140 358 1119 357.991 1119 332.991 1105 332.991 1105 357.985 1084 357.977 1084 325.87 1112 299.354 1140 325.831ZM1077.09 329.656 1073.43 326 1112 289.356 1150.57 326 1146.93 329.632 1112 296.6Z"/><path d="M1088 344.978 1100 344.978 1100 332.978 1088 332.978ZM1090 334.978 1098 334.978 1098 342.978 1090 342.978Z"/><path d="M1136 332.978 1124 332.978 1124 344.978 1136 344.978ZM1134 342.978 1126 342.978 1126 334.978 1134 334.978Z"/></g></svg>